# xmcd
#
# Track frame offsets:
#	150
#	9959
#	21626
#	33699
#	45451
#	55435
#	67212
#	77433
#	89464
#	104295
#	118332
#	130671
#	143042
#	159299
#
# Disc length: 2320 seconds
#
# Revision: 0
# Processed by: cddbd v1.5.2PL0 Copyright (c) Steve Scherf et al.
# Submitted via: audiograbber 1.83.01
#
DISCID=bc090e0e
DTITLE=Various Artist - The Platinum Artist Series - Country Hits
DYEAR=2006
DGENRE=Country
TTITLE0=Lynn Anderson - What a Man, My Mann Is
TTITLE1=George Jones - White Lightning
TTITLE2=Freddy Fender - Before the Next Teardrop Falls (Live)
TTITLE3=Willie Nelson - Night Life
TTITLE4=Conway Twitty - It's Only Make Believe
TTITLE5=Patsy Cline - Walkin' After Midnight
TTITLE6=Dave Dudley - Six Days on the Road
TTITLE7=Waylon Jennings - Don't Think Twice, It's All Right
TTITLE8=Juice Newton - Queen of Hearts
TTITLE9=Johny Paycheck - I'm the Only Hell (Mama Ever Raised)
TTITLE10=Kenny Rogers - Ruben James
TTITLE11=Charlie Rich - Behind Closed Doors
TTITLE12=Dickey Lee - Rocky
TTITLE13=Jeannie C. Riley - Harper Valley P.T.A.
EXTD=
EXTT0=
EXTT1=
EXTT2=
EXTT3=
EXTT4=
EXTT5=
EXTT6=
EXTT7=
EXTT8=
EXTT9=
EXTT10=
EXTT11=
EXTT12=
EXTT13=
PLAYORDER=
